<?xml version="1.0" standalone="no"?>
<!DOCTYPE svg PUBLIC "-//W3C//DTD SVG 1.0//EN" "http://www.w3.org/TR/2001/REC-SVG-20010904/DTD/svg10.dtd">
<svg xmlns="http://www.w3.org/2000/svg" xmlns:xlink="http://www.w3.org/1999/xlink" id="body_1" width="20" height="20">

<g transform="matrix(0.10375812 0 0 0.10375812 0 0)">
    <path d="M0 0L192.756 0L192.756 192.756L0 192.756L0 0z" stroke="none" fill="#FFFFFF" fill-rule="nonzero" />
    <path d="M184.252 63.543C 180.314 105.46 154.752 112.168 8.503998 109.770996C 154.752 112.16699 171.129 119.479996 120.902 160.12799C 171.129 119.479996 180.314 105.46099 184.252 63.54299L184.252 63.54299L184.252 63.543z" stroke="none" fill="#CC2229" fill-rule="nonzero" />
    <path d="M49.48 108.266C 43.392998 108.266 39.221 107.139 37.079 104.996C 34.937 102.967 33.809 98.908005 33.809 93.045L33.809 93.045L33.809 79.743L48.69 76.924995L48.69 96.09L77.662994 96.09L77.662994 44.23L92.545 44.23L92.545 93.045C 92.545 98.908 91.418 102.965996 89.275 104.996C 87.020004 107.139 82.849 108.266 76.761 108.266L76.761 108.266L49.48 108.266zM132.711 84.86L139.36299 84.86L139.316 84.86C 145.148 84.815 149.611 78.756 151.207 71.011C 151.57 69.053 151.799 66.957 151.799 64.861C 151.799 58.985 149.93199 53.336 146.787 49.555C 144.42 46.685 141.367 44.863 137.85901 44.863L137.85901 44.863L96.563 44.863L96.563 58.711L132.211 58.711C 134.033 58.848 136.721 60.031998 136.721 64.861C 136.721 69.872 134.30699 70.965 132.53 71.011L132.53 71.011L103.376 71.011L132.622 108.593L152.575 108.593L132.711 84.86z" stroke="none" fill="#000000" fill-rule="nonzero" />
    <path d="M49.484 107.246L48.928 107.242004L48.387 107.232L47.857002 107.217L47.339 107.195L46.833 107.166L46.339 107.131L45.856 107.09L45.385998 107.043L44.928997 106.988L44.482 106.93L44.048 106.863L43.626 106.791L43.217 106.715004L42.819 106.631004L42.435 106.54301L42.062 106.449005L41.703 106.34801L41.355 106.242004L41.02 106.133L40.697 106.018005L40.388 105.896L40.09 105.770004L39.805 105.63901L39.533 105.504005L39.274002 105.365005L39.026 105.22101L38.792 105.07201L38.57 104.922005L38.36 104.76601L38.162 104.605L37.975 104.441L37.791 104.266L37.617 104.091995L37.455 103.91599L37.296 103.729996L37.143 103.531L36.991 103.32L36.844 103.098L36.702003 102.861L36.563004 102.615L36.429005 102.354L36.300003 102.08199L36.175003 101.79699L36.054005 101.49999L35.939003 101.188995L35.829002 100.867L35.724003 100.533L35.625004 100.187996L35.531002 99.829994L35.442 99.45899L35.359 99.07599L35.282 98.68199L35.211002 98.274994L35.146004 97.856995L35.086002 97.42799L35.033 96.98599L34.986 96.53299L34.945 96.06799L34.91 95.592995L34.88 95.105995L34.858 94.607994L34.842003 94.09799L34.833004 93.57699L34.830006 93.041985L34.830006 80.587L47.672005 78.155L47.672005 97.109L78.684006 97.109L78.684006 45.25L91.52701 45.25L91.52701 93.043L91.52401 93.578L91.51401 94.098L91.49901 94.608L91.476006 95.106L91.448006 95.593L91.413 96.068L91.372 96.533L91.324005 96.986L91.271 97.428L91.211006 97.857L91.146 98.275L91.074005 98.682L90.99801 99.076L90.91501 99.459L90.82601 99.828L90.73201 100.188L90.63201 100.533005L90.528015 100.867004L90.417015 101.189L90.30202 101.5L90.182014 101.797L90.057014 102.082L89.92802 102.354004L89.793015 102.615005L89.655014 102.86101L89.51202 103.09801L89.36601 103.32001L89.21501 103.531006L89.06101 103.73L88.902016 103.916L88.74101 104.092L88.57401 104.258L88.388016 104.426L88.19102 104.592L87.98302 104.754005L87.763016 104.912L87.53101 105.066L87.28802 105.215004L87.03302 105.359L86.76602 105.5L86.48702 105.637L86.19702 105.768L85.89302 105.895L85.57802 106.016L85.251015 106.131L84.91202 106.242L84.56102 106.348L84.19702 106.449L83.82302 106.543L83.43502 106.631L83.03602 106.715L82.625015 106.79099L82.20101 106.86299L81.766014 106.92999L81.319016 106.98799L80.860016 107.04299L80.390015 107.08999L79.90601 107.13099L79.41201 107.16599L78.90501 107.19499L78.38701 107.216995L77.85701 107.231995L77.31601 107.242L76.76001 107.245995L49.484 107.245995L49.484 107.246z" stroke="none" fill="#414743" fill-rule="nonzero" />
    <path d="M49.487 106.227L48.94 106.223L48.411 106.213L47.894 106.197L47.39 106.175995L46.899 106.147995L46.419 106.115L45.951 106.074L45.496 106.029L45.054996 105.977L44.625996 105.92L44.209995 105.856995L43.805996 105.788994L43.415997 105.715L43.038 105.63699L42.674 105.55299L42.324 105.463L41.987 105.368996L41.663 105.270996L41.351997 105.168L41.054996 105.062L40.770996 104.951L40.499996 104.836L40.243996 104.719L40.000996 104.6L39.771996 104.475L39.554996 104.35L39.351997 104.221L39.160995 104.090004L38.982994 103.95901L38.817993 103.824005L38.662994 103.689L38.501995 103.535L38.350994 103.385L38.218994 103.242004L38.087994 103.088005L37.959995 102.922005L37.831997 102.742004L37.706997 102.553L37.582996 102.348L37.460995 102.131L37.342995 101.902L37.226994 101.658L37.113995 101.399994L37.003994 101.131L36.899994 100.848L36.797993 100.551L36.699993 100.240005L36.607994 99.91801L36.519993 99.58201L36.435993 99.23201L36.357994 98.87101L36.284992 98.49601L36.21699 98.10701L36.15399 97.70901L36.096992 97.297005L36.044994 96.873L35.999996 96.437004L35.959995 95.98601L35.926994 95.52501L35.897995 95.05301L35.876995 94.56901L35.861996 94.07201L35.851997 93.564L35.849 93.039L35.849 81.432L46.653 79.385L46.653 98.129L79.703995 98.129L79.703995 46.268997L90.506996 46.268997L90.506996 93.04L90.504 93.565L90.494995 94.073006L90.479996 94.56901L90.45799 95.05301L90.42999 95.52601L90.395996 95.98701L90.356995 96.436005L90.311 96.873L90.259995 97.297005L90.202995 97.70901L90.13999 98.10701L90.07199 98.49601L89.99899 98.87101L89.91999 99.23201L89.83699 99.58001L89.74899 99.91801L89.65599 100.240005L89.55899 100.551L89.45799 100.848L89.35199 101.131L89.24299 101.399994L89.12999 101.658L89.01399 101.902L88.895996 102.133L88.773994 102.350006L88.649994 102.55301L88.524994 102.74401L88.397995 102.92201L88.269 103.08801L88.139 103.24201L88.006996 103.38501L87.871994 103.51801L87.716995 103.66001L87.550995 103.79901L87.37299 103.93801L87.18399 104.072014L86.98199 104.207016L86.76999 104.33801L86.54299 104.46501L86.30499 104.59201L86.05399 104.71301L85.79099 104.832016L85.51399 104.947014L85.22399 105.05901L84.92199 105.166016L84.60699 105.27001L84.277985 105.36901L83.93799 105.46301L83.58399 105.55101L83.217995 105.63501L82.838 105.71501L82.445 105.78901L82.041 105.85701L81.623 105.92001L81.192 105.97701L80.75 106.029015L80.295 106.07401L79.826996 106.11501L79.34599 106.14801L78.854 106.17601L78.35 106.197014L77.833 106.21301L77.304 106.223015L76.756004 106.22701L49.487 106.22701L49.487 106.227z" stroke="none" fill="#505D53" fill-rule="nonzero" />
    <path d="M49.49 105.207L48.953003 105.205L48.436005 105.195L47.931004 105.18L47.441 105.158L46.964 105.131L46.499 105.098L46.044 105.059L45.605 105.016L45.182 104.966995L44.77 104.909996L44.372 104.85L43.986 104.784996L43.615 104.715L43.256 104.641L42.914 104.561L42.586002 104.479L42.272003 104.391L41.970005 104.298996L41.684006 104.204994L41.413006 104.106995L41.156006 104.007996L40.912006 103.904L40.682007 103.798996L40.470005 103.69299L40.270004 103.58599L40.083004 103.47699L39.913006 103.36899L39.752007 103.25999L39.607006 103.151985L39.474007 103.04498L39.352005 102.93798L39.213005 102.80498L39.085007 102.67798L38.983006 102.56598L38.880005 102.44498L38.778004 102.31398L38.673004 102.16598L38.568005 102.00798L38.463005 101.83398L38.359005 101.64798L38.257004 101.44898L38.154003 101.233986L38.053 101.00398L37.955 100.761986L37.86 100.50398L37.766 100.23198L37.677 99.946976L37.591 99.64797L37.508 99.33397L37.43 99.00597L37.356 98.66597L37.288 98.31097L37.223 97.94096L37.163 97.56097L37.107998 97.16396L37.059 96.757965L37.015 96.33897L36.977 95.90397L36.944 95.45797L36.917 94.99997L36.896 94.53097L36.881 94.04697L36.872 93.550964L36.868 93.035965L36.868 82.27596L45.633 80.61596L45.633 99.14796L80.723 99.14796L80.723 47.289L89.488 47.289L89.488 93.037L89.485 93.552L89.476 94.047005L89.461 94.531006L89.439995 95.00101L89.413994 95.45801L89.38 95.90401L89.341995 96.338005L89.298 96.758L89.24899 97.166L89.19399 97.561L89.134995 97.940994L89.06999 98.311L88.99999 98.666L88.926994 99.006L88.84899 99.334L88.76599 99.648L88.67999 99.94701L88.59 100.23201L88.49799 100.50401L88.40099 100.76202L88.30399 101.00602L88.202995 101.23402L88.101 101.44901L87.998 101.64801L87.893 101.83601L87.789 102.00801L87.685005 102.16601L87.58101 102.31201L87.476006 102.445015L87.37501 102.56602L87.27301 102.67602L87.169014 102.779015L87.04501 102.89301L86.91001 103.00601L86.76301 103.12101L86.60501 103.23401L86.433014 103.34801L86.250015 103.45901L86.054016 103.57001L85.84402 103.68201L85.62102 103.79101L85.38502 103.89601L85.13502 104.002014L84.87002 104.10401L84.59302 104.20101L84.30202 104.29701L83.99602 104.389015L83.67802 104.47701L83.346016 104.56101L83.000015 104.639015L82.639015 104.71501L82.266014 104.78501L81.87901 104.85001L81.47901 104.91001L81.06501 104.96501L80.64001 105.016014L80.202 105.05901L79.747 105.098015L79.281 105.13101L78.803 105.15801L78.313 105.180016L77.80801 105.195015L77.29201 105.20502L76.753006 105.207016L49.49 105.207016L49.49 105.207z" stroke="none" fill="#58705C" fill-rule="nonzero" />
    <path d="M49.493 104.188L48.965 104.186005L48.46 104.176L47.968998 104.16L47.491997 104.14101L47.028996 104.11301L46.577995 104.08201L46.137997 104.04301L45.714996 104.00201L45.309 103.95501L44.913998 103.90201L44.532997 103.84401L44.165997 103.781006L43.812996 103.715004L43.474995 103.645004L43.152996 103.57001L42.847996 103.492004L42.555996 103.412L42.277996 103.328L42.015995 103.240005L41.770996 103.15201L41.539997 103.06201L41.322 102.97101L41.121 102.879005L40.938 102.78901L40.768 102.69701L40.612003 102.605L40.473003 102.518005L40.344 102.43001L40.230003 102.34601L40.131004 102.26601L40.041004 102.186005L39.924004 102.076004L39.820004 101.971L39.748005 101.893L39.673004 101.805L39.596004 101.705L39.513004 101.590004L39.430004 101.463005L39.344006 101.32201L39.257004 101.16601L39.170002 100.99601L39.082 100.81101L38.993 100.60901L38.905 100.393005L38.82 100.162L38.735 99.914L38.653 99.652L38.574 99.377L38.497 99.086L38.424 98.779L38.355 98.459L38.29 98.125L38.229 97.775L38.171 97.41L38.119003 97.033005L38.072002 96.645004L38.030003 96.242004L37.993004 95.82201L37.961002 95.38901L37.935 94.948006L37.915 94.493004L37.9 94.021L37.891003 93.538L37.887 93.032005L37.887 83.12L44.614002 81.846L44.614002 100.166L81.742004 100.166L81.742004 48.308L88.469 48.308L88.469 93.034L88.466 93.53999L88.457 94.021996L88.442 94.493L88.422005 94.949L88.396 95.391L88.364006 95.822L88.328 96.24L88.285 96.645L88.23801 97.034996L88.186005 97.411995L88.129005 97.772995L88.06701 98.12499L88.00201 98.45899L87.93301 98.77899L87.86001 99.08599L87.783005 99.37699L87.704 99.65399L87.622 99.91599L87.538 100.161995L87.451004 100.395L87.364006 100.60899L87.27601 100.811L87.18801 100.995995L87.099014 101.16599L87.013016 101.32199L86.92702 101.46299L86.84302 101.58999L86.763016 101.70299L86.68501 101.802986L86.610016 101.89298L86.53902 101.96898L86.46602 102.04098L86.374016 102.12498L86.26901 102.212975L86.153015 102.30297L86.02602 102.39497L85.88402 102.487976L85.73202 102.58198L85.56602 102.67598L85.38302 102.77298L85.18802 102.86698L84.97902 102.96298L84.75602 103.054985L84.51602 103.14599L84.26402 103.235985L83.997025 103.32398L83.71403 103.40998L83.41703 103.48998L83.10803 103.567986L82.782036 103.64499L82.44103 103.71499L82.08603 103.78099L81.71903 103.843994L81.33603 103.899994L80.939026 103.952995L80.53003 104.002L80.10703 104.043L79.66703 104.082L79.216034 104.113L78.75204 104.141L78.27604 104.159996L77.78304 104.175995L77.279045 104.186L76.750046 104.187996L49.493 104.187996L49.493 104.188z" stroke="none" fill="#5A7F60" fill-rule="nonzero" />
    <path d="M49.497 103.168L48.978 103.166L48.485 103.156L48.005 103.143L47.542 103.120995L47.093998 103.09599L46.657997 103.063995L46.232 103.02899L45.824997 102.98799L45.435997 102.94299L45.058 102.89299L44.694 102.83799L44.345 102.77699L44.012 102.715L43.694 102.647995L43.392002 102.579994L43.11 102.507996L42.84 102.434L42.585 102.354996L42.347 102.27699L42.128 102.19899L41.924 102.11899L41.732998 102.03699L41.559 101.958984L41.406 101.88299L41.266 101.80699L41.141 101.73399L41.034 101.66599L40.935 101.59999L40.854 101.538994L40.788 101.48399L40.729 101.43399L40.635 101.34599L40.553997 101.26399L40.511997 101.216995L40.463997 101.161995L40.413998 101.09599L40.353996 101.01399L40.291996 100.91799L40.224995 100.80899L40.154995 100.68399L40.082996 100.54499L40.007996 100.38699L39.931995 100.21299L39.854996 100.02299L39.779995 99.819984L39.703995 99.595985L39.628994 99.358986L39.556995 99.10699L39.485996 98.83999L39.417995 98.554985L39.353996 98.25398L39.291996 97.93898L39.233997 97.60698L39.179996 97.26198L39.129997 96.90198L39.083996 96.52898L39.043995 96.14497L39.008995 95.739975L38.977997 95.32098L38.951996 94.89497L38.932995 94.45497L38.918995 93.99597L38.909996 93.52497L38.905994 93.02897L38.905994 83.96397L43.594994 83.076965L43.594994 101.18597L82.760994 101.18597L82.760994 49.327L87.45 49.327L87.45 93.031L87.447 93.527L87.437996 93.997L87.423996 94.455L87.404 94.896L87.379 95.324005L87.348 95.740005L87.312996 96.14101L87.271996 96.52901L87.227 96.906006L87.176994 97.26201L87.12299 97.60701L87.064995 97.93901L87.004 98.25401L86.938995 98.555016L86.870995 98.83801L86.799995 99.10701L86.728 99.36101L86.653 99.59801L86.577 99.81801L86.5 100.02501L86.424 100.21501L86.34901 100.38701L86.27501 100.54301L86.20201 100.684006L86.13101 100.809006L86.06401 100.920006L86.002014 101.01401L85.946014 101.09401L85.89401 101.16001L85.84501 101.21701L85.80501 101.26201L85.76401 101.30301L85.70201 101.35701L85.62901 101.42001L85.543015 101.486015L85.447014 101.555016L85.335014 101.62901L85.21401 101.70501L85.07701 101.781006L84.92201 101.86301L84.75401 101.94501L84.57401 102.02701L84.377014 102.10901L84.16302 102.19101L83.93502 102.27101L83.692024 102.35201L83.43202 102.430016L83.15802 102.50601L82.87002 102.57801L82.56502 102.64801L82.24302 102.71501L81.90702 102.77701L81.55902 102.836006L81.19302 102.893005L80.81203 102.94301L80.42003 102.98801L80.01403 103.02901L79.58803 103.06401L79.15103 103.09601L78.702034 103.12101L78.23904 103.14301L77.75903 103.15601L77.26604 103.166016L76.74704 103.168015L49.49704 103.168015L49.497 103.168z" stroke="none" fill="#568C5F" fill-rule="nonzero" />
    <path d="M42.576 101.275L42.486 101.244L42.309002 101.174L42.144 101.106L41.998 101.038L41.875 100.977005L41.765 100.91801L41.670998 100.86301L41.593998 100.814L41.525997 100.767006L41.477997 100.732L41.444996 100.705L41.418995 100.682L41.348995 100.616L41.290997 100.557L41.277996 100.543L41.257996 100.52L41.233997 100.489L41.197 100.436L41.156 100.374L41.107998 100.296L41.054996 100.201996L40.998997 100.092995L40.937996 99.964L40.873997 99.81799L40.807995 99.65599L40.742996 99.47799L40.674995 99.28099L40.607994 99.06799L40.542995 98.839L40.478996 98.592995L40.415997 98.328995L40.355995 98.049995L40.297997 97.755L40.242996 97.443L40.190998 97.115L40.143997 96.772995L40.100998 96.41799L40.061996 96.04899L40.027996 95.65999L39.997997 95.25499L39.974 94.84399L39.954998 94.41898L39.940998 93.971985L39.932 93.513985L39.929 93.027985L39.929 84.81198L42.579002 84.30998L42.579002 101.27498L42.576004 101.27498L42.576 101.275zM83.781006 101.246L83.781006 50.347L86.43001 50.347L86.43001 93.028L86.42701 93.514L86.41801 93.972L86.40401 94.417L86.38501 94.845L86.36101 95.257L86.33101 95.658005L86.29701 96.04401L86.25701 96.41701L86.21401 96.77601L86.167015 97.114006L86.11601 97.44201L86.06101 97.754005L86.00401 98.047005L85.943016 98.328L85.88102 98.590004L85.81702 98.836006L85.750015 99.06801L85.683014 99.27901L85.61701 99.476006L85.54901 99.656006L85.48401 99.81801L85.421005 99.963005L85.36101 100.090004L85.30301 100.201004L85.25001 100.297005L85.20201 100.37501L85.16101 100.437004L85.12801 100.484L85.10201 100.517L85.08101 100.542L85.07101 100.552L85.062004 100.562004L85.03001 100.591L84.98801 100.62601L84.93301 100.66901L84.867004 100.716L84.786 100.769005L84.695 100.826004L84.588 100.887L84.461 100.955L84.32 101.023L84.168 101.091L83.998 101.161L83.808 101.233L83.781 101.246z" stroke="none" fill="#4B975A" fill-rule="nonzero" />
    <path d="M40.949 93.498L40.945 93.021L40.945 85.653L41.556 85.537L41.556 98.683L41.522 98.566L41.464 98.343L41.406002 98.103004L41.350002 97.843L41.296 97.568L41.244003 97.273L41.196003 96.964005L41.151005 96.63901L41.109005 96.30001L41.072006 95.94801L41.039005 95.57401L41.010006 95.183014L40.987007 94.78802L40.969006 94.37801L40.956005 93.943016L40.949005 93.49802L40.949 93.498zM85.007 97.842L84.950005 98.102005L84.893005 98.344L84.83401 98.567L84.80001 98.686005L84.80001 51.366005L85.41101 51.366005L85.41101 93.02501L85.40801 93.50201L85.40001 93.94701L85.38701 94.379005L85.36801 94.79301L85.34601 95.19001L85.31701 95.57601L85.28501 95.947014L85.24701 96.30202L85.20601 96.64502L85.16101 96.96602L85.113014 97.27502L85.06201 97.570015L85.00701 97.84202z" stroke="none" fill="#33A457" fill-rule="nonzero" />
    <path d="M139.297 83.841L139.785 83.82201L140.254 83.772L140.715 83.693L141.17 83.585L141.617 83.449L142.057 83.284996L142.492 83.091995L142.918 82.87299L143.338 82.62499L143.752 82.35199L144.158 82.05199L144.557 81.72599L144.947 81.37499L145.328 80.99999L145.699 80.59899L146.06201 80.17499L146.41402 79.72899L146.75801 79.25899L147.08801 78.76899L147.40802 78.25799L147.71503 77.72799L148.01202 77.17699L148.29503 76.608986L148.56403 76.02299L148.82002 75.41999L149.06203 74.801994L149.29103 74.16899L149.50403 73.52099L149.70303 72.859985L149.88704 72.18699L150.05704 71.50199L150.20703 70.81199L150.27003 70.46599L150.33003 70.10399L150.38904 69.73999L150.44304 69.37399L150.49403 69.00499L150.54303 68.63399L150.58603 68.26099L150.62503 67.886986L150.66003 67.51099L150.69104 67.13399L150.71704 66.75599L150.74004 66.37799L150.75604 65.99899L150.77005 65.619995L150.77705 65.241L150.77905 64.863L150.77306 64.332L150.75806 63.803L150.73206 63.277L150.69505 62.752L150.64806 62.23L150.59406 61.71L150.52705 61.194L150.45105 60.682L150.36505 60.173L150.27005 59.668L150.16405 59.167L150.05104 58.671L149.92804 58.18L149.79504 57.695L149.65204 57.214L149.50404 56.741L149.34404 56.273003L149.17604 55.811L149.00005 55.356L148.81604 54.909L148.62305 54.469L148.42204 54.037003L148.21304 53.612003L147.99805 53.197002L147.77304 52.79L147.54105 52.391003L147.30304 52.002003L147.05704 51.624004L146.80304 51.253006L146.54305 50.894005L146.27704 50.545006L146.00204 50.205006L145.79105 49.955006L145.57605 49.710007L145.35905 49.473007L145.13905 49.24201L144.91405 49.01801L144.68805 48.80101L144.45705 48.59001L144.22505 48.388012L143.98805 48.191013L143.75005 48.002014L143.51004 47.821014L143.26604 47.647015L143.02003 47.481014L142.77003 47.322014L142.51804 47.172012L142.26404 47.02901L142.00604 46.894012L141.74605 46.766014L141.48605 46.648014L141.22105 46.538013L140.95505 46.435013L140.68605 46.34101L140.41405 46.255013L140.14105 46.179012L139.86305 46.110012L139.58606 46.051014L139.30505 46.000015L139.02005 45.958015L138.73405 45.925014L138.44505 45.902016L138.15405 45.888016L137.85205 45.883015L97.58205 45.883015L97.58205 57.693016L132.26605 57.693016L132.70905 57.741016L133.14804 57.822018L133.60403 57.941017L134.06804 58.106018L134.53304 58.32002L134.99603 58.59002L135.44704 58.92002L135.87703 59.313023L136.27702 59.771023L136.64302 60.29402L136.96303 60.88502L137.23402 61.542023L137.44902 62.26602L137.60902 63.05902L137.70703 63.92302L137.74004 64.85902L137.71103 65.822014L137.62303 66.70201L137.48203 67.50501L137.28903 68.237015L137.04503 68.90002L136.75403 69.49502L136.42003 70.02402L136.04503 70.487015L135.63902 70.88201L135.20903 71.21201L134.76202 71.47801L134.30902 71.68501L133.85402 71.83801L133.40802 71.94201L132.97502 72.004005L132.56203 72.031006L105.45903 72.031006L133.11903 107.574005L150.39104 107.574005L130.52904 83.841L139.29704 83.841L139.297 83.841z" stroke="none" fill="#414743" fill-rule="nonzero" />
    <path d="M139.275 82.822L139.711 82.804L140.115 82.762L140.51201 82.694L140.904 82.601L141.289 82.483L141.672 82.340004L142.051 82.172005L142.428 81.979004L142.799 81.761L143.168 81.517L143.531 81.247L143.893 80.953L144.246 80.633L144.59601 80.289L144.93901 79.92L145.27501 79.528L145.604 79.113L145.92401 78.673996L146.23401 78.213L146.535 77.732994L146.824 77.229996L147.10501 76.70799L147.37502 76.16799L147.63301 75.60999L147.87701 75.034996L148.10701 74.44399L148.326 73.83599L148.533 73.21399L148.723 72.57899L148.90001 71.930984L149.06201 71.27098L149.20702 70.61298L149.26602 70.290985L149.32602 69.93799L149.38303 69.58399L149.43602 69.22899L149.48402 68.87199L149.52902 68.51099L149.57202 68.14899L149.61102 67.78699L149.64502 67.42199L149.67403 67.05699L149.69902 66.690994L149.72102 66.325L149.73802 65.959L149.75002 65.593L149.75801 65.227005L149.76001 64.865005L149.75601 64.352005L149.74 63.844006L149.71501 63.337006L149.68001 62.833004L149.63501 62.330006L149.58002 61.831005L149.51802 61.334003L149.44302 60.842003L149.36102 60.352L149.27002 59.867L149.17001 59.386L149.06102 58.91L148.94102 58.439L148.81403 57.973L148.67802 57.513L148.53502 57.059002L148.38303 56.611L148.22302 56.169L148.05302 55.733997L147.87903 55.308L147.69302 54.888L147.50203 54.476L147.30502 54.072002L147.10002 53.678L146.88702 53.292L146.66603 52.914L146.44102 52.546L146.20903 52.189003L145.97102 51.840004L145.72702 51.503002L145.47702 51.175003L145.21503 50.854004L145.01802 50.619003L144.81602 50.391003L144.61502 50.169003L144.41002 49.955L144.20102 49.747L143.99002 49.545002L143.77702 49.351L143.56403 49.164L143.34802 48.983L143.12703 48.809002L142.90604 48.643L142.68604 48.485L142.46103 48.333L142.23402 48.19L142.00603 48.053997L141.77702 47.924995L141.54503 47.801994L141.31203 47.687996L141.07803 47.582996L140.84204 47.482998L140.60403 47.392L140.36304 47.308L140.12303 47.232L139.88103 47.164997L139.63503 47.103996L139.38902 47.050995L139.13902 47.005997L138.88902 46.968998L138.63503 46.94L138.37903 46.919L138.12103 46.906998L137.84404 46.901997L98.602 46.901997L98.602 56.672997L132.31999 56.672997L132.855 56.731995L133.371 56.825996L133.904 56.965996L134.453 57.160995L135.004 57.414997L135.55699 57.735996L136.094 58.129997L136.607 58.599L137.082 59.142L137.512 59.759L137.885 60.446L138.19499 61.201L138.439 62.019L138.61699 62.901L138.72499 63.847L138.76 64.857L138.72899 65.888L138.635 66.840004L138.47899 67.72401L138.262 68.54401L137.982 69.30101L137.64499 69.99301L137.24998 70.61801L136.80098 71.17401L136.30698 71.655014L135.78098 72.057014L135.23598 72.38201L134.68398 72.63401L134.13298 72.81901L133.59798 72.94501L133.07997 73.019005L132.59398 73.05L107.54298 73.05L133.61697 106.55701L148.20897 106.55701L128.34796 82.82201L139.27496 82.82201L139.275 82.822z" stroke="none" fill="#505D53" fill-rule="nonzero" />
    <path d="M139.256 81.803L139.637 81.788L139.97499 81.751L140.30899 81.694L140.637 81.617L140.963 81.517L141.287 81.395996L141.61101 81.252L141.936 81.085L142.26001 80.895996L142.58401 80.681L142.90602 80.442L143.22902 80.179L143.54903 79.891L143.86502 79.577995L144.18002 79.241L144.48602 78.881L144.79102 78.496994L145.08801 78.088L145.37901 77.658L145.66002 77.207L145.93602 76.734L146.20102 76.24L146.45502 75.728L146.69902 75.198L146.93202 74.65L147.15402 74.085L147.36302 73.503L147.56102 72.908L147.74402 72.298L147.91402 71.674995L148.07002 71.03999L148.20702 70.412994L148.26201 70.115L148.32 69.771996L148.375 69.42799L148.426 69.08399L148.47299 68.73799L148.51799 68.38699L148.55899 68.036995L148.596 67.686L148.629 67.333L148.658 66.98L148.684 66.625L148.703 66.272L148.71901 65.91901L148.73201 65.56601L148.738 65.21301L148.74 64.86601L148.73601 64.37302L148.72101 63.884018L148.697 63.39702L148.664 62.913017L148.621 62.430016L148.56801 61.950016L148.50801 61.474014L148.438 61.001015L148.35701 60.532013L148.27 60.066013L148.17401 59.60401L148.06801 59.14901L147.955 58.69701L147.834 58.25101L147.703 57.811012L147.56601 57.377014L147.42001 56.949013L147.26802 56.52701L147.10703 56.11301L146.93903 55.707012L146.76602 55.308014L146.58202 54.916016L146.39502 54.532017L146.20102 54.159016L146.00002 53.794014L145.79102 53.437016L145.57802 53.090015L145.36102 52.754017L145.13702 52.427017L144.90802 52.111015L144.67403 51.805016L144.43002 51.502014L144.24602 51.284016L144.05902 51.071014L143.87102 50.866013L143.68002 50.66701L143.48802 50.47501L143.29301 50.28901L143.10002 50.11001L142.90202 49.939007L142.70502 49.774006L142.50401 49.616005L142.30501 49.466003L142.104 49.323L141.90001 49.186L141.699 49.057L141.496 48.936L141.291 48.82L141.082 48.711L140.877 48.609997L140.67 48.517L140.463 48.428997L140.254 48.348995L140.043 48.275993L139.832 48.208992L139.619 48.149994L139.406 48.096992L139.19101 48.051994L138.975 48.011993L138.75601 47.978992L138.53502 47.954994L138.31201 47.935993L138.08801 47.92499L137.83601 47.92099L99.621 47.92099L99.621 55.65399L132.377 55.65399L133.002 55.721992L133.592 55.829994L134.207 55.991993L134.836 56.215992L135.475 56.50899L136.115 56.881992L136.74 57.339993L137.336 57.88399L137.887 58.512993L138.381 59.222992L138.80699 60.00799L139.15599 60.859993L139.43 61.77199L139.625 62.74399L139.74 63.77199L139.779 64.85499L139.746 65.95399L139.645 66.97899L139.475 67.942986L139.23401 68.85198L138.92201 69.70198L138.53502 70.48998L138.08002 71.21198L137.55502 71.861984L136.97502 72.427986L136.35402 72.901985L135.70901 73.28599L135.05902 73.582985L134.41202 73.80099L133.78502 73.94799L133.18602 74.03399L132.62701 74.06999L109.62901 74.06999L134.11502 105.53699L146.02702 105.53699L126.164024 81.802986L139.25603 81.802986L139.256 81.803z" stroke="none" fill="#58705C" fill-rule="nonzero" />
    <path d="M139.234 80.783L139.562 80.77L139.834 80.741L140.104 80.695L140.371 80.631996L140.63501 80.550995L140.90201 80.451996L141.17201 80.33199L141.44301 80.19199L141.71901 80.02999L141.99802 79.84599L142.27902 79.63799L142.56403 79.40499L142.85002 79.148994L143.13503 78.868L143.41803 78.562L143.69904 78.23399L143.97903 77.88L144.25403 77.501L144.52502 77.102L144.78702 76.681L145.04501 76.237L145.29501 75.772L145.53502 75.288L145.76802 74.785L145.98802 74.26501L146.19902 73.727005L146.40002 73.171005L146.58803 72.601006L146.76402 72.017006L146.92802 71.41901L147.07602 70.809006L147.20702 70.213005L147.25801 69.939L147.31401 69.606L147.367 69.272L147.416 68.94L147.463 68.603004L147.508 68.26401L147.545 67.92401L147.582 67.585014L147.613 67.24502L147.641 66.902016L147.666 66.55901L147.686 66.21902L147.701 65.87902L147.713 65.54002L147.719 65.20003L147.721 64.86703L147.717 64.39303L147.70299 63.92503L147.68 63.45803L147.646 62.99403L147.605 62.53003L147.55699 62.07003L147.49799 61.61403L147.43 61.16103L147.355 60.71103L147.26999 60.26503L147.178 59.82303L147.07799 59.387028L146.969 58.956028L146.85399 58.53003L146.72899 58.109028L146.59799 57.695026L146.45898 57.288025L146.31198 56.885025L146.15999 56.491024L146.00198 56.105022L145.83598 55.727024L145.66199 55.355022L145.484 54.992023L145.303 54.640022L145.11299 54.29602L144.91599 53.960022L144.71698 53.63502L144.51198 53.320023L144.30298 53.014023L144.08998 52.720024L143.87299 52.435024L143.64299 52.151024L143.47299 51.949024L143.299 51.752026L143.125 51.562027L142.951 51.380028L142.77501 51.20403L142.598 51.033028L142.42001 50.87003L142.24202 50.71503L142.06203 50.566032L141.88303 50.42303L141.70303 50.289032L141.52304 50.161034L141.34204 50.038033L141.16405 49.925034L140.98405 49.818035L140.80305 49.716034L140.62105 49.621033L140.44106 49.532032L140.26405 49.45203L140.08205 49.37503L139.90405 49.30703L139.72105 49.24403L139.54106 49.18703L139.35905 49.136032L139.17805 49.09003L138.99605 49.052032L138.80905 49.018032L138.62305 48.99103L138.43605 48.969032L138.24605 48.954033L138.05505 48.944035L137.82805 48.941036L100.64105 48.941036L100.64105 54.635036L132.43205 54.635036L133.15005 54.713036L133.81206 54.834034L134.50806 55.017033L135.22105 55.271034L135.94505 55.604034L136.67406 56.028034L137.38705 56.550034L138.06606 57.169033L138.69106 57.884033L139.25006 58.688034L139.72906 59.570034L140.11906 60.519035L140.42006 61.526035L140.63306 62.586037L140.75806 63.696037L140.80106 64.853035L140.76405 66.020035L140.65405 67.118034L140.47105 68.16303L140.20705 69.159035L139.85904 70.102036L139.42804 70.98804L138.91003 71.80704L138.31104 72.55003L137.64304 73.200035L136.92804 73.74803L136.18404 74.19003L135.43404 74.533035L134.69104 74.783035L133.97504 74.950035L133.29103 75.048035L132.66003 75.089035L111.713036 75.089035L134.61304 104.518036L143.84604 104.518036L123.98204 80.783035L139.23404 80.783035L139.234 80.783z" stroke="none" fill="#5A7F60" fill-rule="nonzero" />
    <path d="M139.215 79.764L139.48799 79.753L139.69499 79.730995L139.9 79.69599L140.10399 79.64699L140.30899 79.58499L140.51799 79.50699L140.732 79.41199L140.95299 79.29899L141.18 79.165985L141.41399 79.00999L141.65399 78.832985L141.9 78.63199L142.15 78.40699L142.402 78.15799L142.65799 77.88299L142.91199 77.58699L143.16599 77.26499L143.41998 76.91599L143.66998 76.54599L143.91399 76.15599L144.15399 75.73999L144.39099 75.30299L144.61699 74.84699L144.83598 74.371994L145.04498 73.879L145.24599 73.368L145.43599 72.838L145.61699 72.293L145.78499 71.736L145.939 71.164L146.084 70.579L146.209 70.014L146.254 69.763L146.30899 69.439L146.359 69.116005L146.40799 68.796005L146.45299 68.469L146.49399 68.141L146.53299 67.812996L146.568 67.48399L146.59799 67.15599L146.62498 66.82499L146.64798 66.49299L146.66798 66.165985L146.68199 65.83898L146.693 65.513985L146.69899 65.18598L146.70099 64.86698L146.69699 64.41398L146.68399 63.964977L146.66199 63.51898L146.63098 63.07398L146.59198 62.62998L146.54298 62.18998L146.48799 61.75298L146.424 61.31998L146.35199 60.88998L146.271 60.46398L146.18199 60.04098L146.088 59.62498L145.982 59.21398L145.873 58.807983L145.754 58.40798L145.629 58.01298L145.498 57.62498L145.359 57.24398L145.213 56.86898L145.062 56.50398L144.90599 56.145977L144.74199 55.793976L144.57399 55.450977L144.402 55.120975L144.22499 54.797974L144.04298 54.482975L143.85498 54.178974L143.66399 53.884975L143.471 53.601974L143.271 53.328976L143.06999 53.064976L142.857 52.799976L142.69899 52.613976L142.54099 52.431976L142.38098 52.257977L142.22298 52.091976L142.06198 51.932976L141.89998 51.776978L141.73997 51.62998L141.57997 51.49098L141.41997 51.35798L141.25996 51.22998L141.10196 51.11098L140.94296 50.99898L140.78296 50.89098L140.62895 50.79198L140.47295 50.69998L140.31595 50.61198L140.15994 50.52898L140.00594 50.45398L139.85493 50.38598L139.70294 50.32198L139.55295 50.26398L139.39995 50.21098L139.24995 50.16398L139.09796 50.12098L138.94896 50.08298L138.79897 50.051983L138.64296 50.023983L138.49196 50.000984L138.33595 49.983986L138.17995 49.970985L138.02095 49.962986L137.81995 49.959988L101.65994 49.959988L101.65994 53.615986L132.48795 53.615986L133.29695 53.703987L134.03496 53.838985L134.80896 54.041985L135.60497 54.325985L136.41597 54.697987L137.23196 55.17399L138.03296 55.759987L138.79495 56.455986L139.49596 57.254986L140.11896 58.151985L140.64996 59.130985L141.07996 60.176987L141.40996 61.278988L141.64096 62.42899L141.77496 63.62099L141.81996 64.85099L141.78096 66.08599L141.66595 67.25599L141.46695 68.38099L141.18195 69.46599L140.79895 70.50299L140.31795 71.48499L139.73994 72.40199L139.06395 73.23799L138.30894 73.97299L137.49994 74.592995L136.65794 75.09499L135.80894 75.481995L134.97095 75.76399L134.16394 75.952995L133.39594 76.062996L132.69293 76.107994L113.798935 76.107994L135.11293 103.49799L141.66193 103.49799L121.80093 79.76399L139.21492 79.76399L139.215 79.764z" stroke="none" fill="#568C5F" fill-rule="nonzero" />
    <path d="M139.193 78.745L139.416 78.736L139.55501 78.721L139.695 78.697L139.83801 78.664L139.98201 78.619L140.13301 78.563L140.29102 78.492004L140.46101 78.40501L140.641 78.3L140.83 78.175L141.02701 78.028L141.23601 77.858L141.451 77.665L141.672 77.447L141.896 77.205L142.123 76.939L142.354 76.649L142.586 76.33L142.814 75.991005L143.041 75.630005L143.266 75.243004L143.48401 74.83501L143.697 74.407005L143.904 73.95901L144.102 73.49401L144.291 73.00901L144.473 72.50501L144.645 71.986015L144.80501 71.45502L144.953 70.90902L145.09201 70.34802L145.20901 69.814026L145.25002 69.58703L145.30301 69.273026L145.354 68.96002L145.39801 68.65202L145.44101 68.33402L145.48201 68.01702L145.52 67.70102L145.55301 67.38302L145.58202 67.06702L145.60901 66.749016L145.63101 66.42702L145.65001 66.112015L145.66402 65.79901L145.67401 65.488014L145.68001 65.17301L145.684 64.86701L145.67801 64.43401L145.66602 64.00501L145.64502 63.580013L145.61502 63.155014L145.57802 62.730015L145.53102 62.310017L145.47902 61.893017L145.41602 61.479015L145.34802 61.069016L145.27103 60.664017L145.18602 60.259018L145.09602 59.865017L144.99602 59.47302L144.89302 59.086018L144.77902 58.706017L144.66002 58.331017L144.53502 57.963017L144.40402 57.602016L144.26802 57.248016L144.12502 56.903015L143.97702 56.565014L143.82202 56.233013L143.66402 55.911015L143.50401 55.602016L143.33801 55.30002L143.16801 55.00602L142.99402 54.72402L142.81602 54.45102L142.63702 54.18802L142.45502 53.93702L142.27002 53.69502L142.07002 53.44902L141.92802 53.279022L141.78102 53.112022L141.63702 52.95502L141.49402 52.80502L141.35002 52.662018L141.20302 52.52102L141.06102 52.38902L140.92001 52.267017L140.77701 52.150017L140.63701 52.037018L140.50002 51.934017L140.36302 51.837017L140.22302 51.743015L140.09402 51.660015L139.96303 51.582016L139.83003 51.508015L139.69704 51.437016L139.57204 51.376015L139.44904 51.321014L139.32204 51.267014L139.20303 51.222015L139.08003 51.179016L138.95903 51.141018L138.83803 51.106018L138.71902 51.07702L138.60202 51.052017L138.47902 51.030018L138.35902 51.012016L138.23802 50.999016L138.11302 50.988014L137.99002 50.982014L137.81203 50.979015L102.68 50.979015L102.68 52.596016L132.543 52.596016L133.443 52.694016L134.256 52.843014L135.109 53.067013L135.98999 53.381012L136.887 53.79201L137.793 54.32001L138.68 54.970013L139.523 55.741013L140.301 56.62601L140.98799 57.617012L141.57199 58.693012L142.04298 59.836014L142.39998 61.033012L142.64798 62.27101L142.79298 63.54401L142.83998 64.84801L142.79898 66.15201L142.67598 67.395004L142.46498 68.600006L142.15398 69.773L141.73598 70.904L141.21098 71.982L140.56998 72.997L139.81798 73.926L138.97697 74.746L138.07198 75.438L137.13098 75.999L136.18398 76.431L135.24997 76.746L134.35197 76.956L133.50197 77.078L132.72697 77.12701L115.88297 77.12701L135.61098 102.479004L139.47998 102.479004L119.61898 78.745L139.19298 78.745L139.193 78.745z" stroke="none" fill="#4B975A" fill-rule="nonzero" />
    <path d="M120.338 81.193L136.109 101.459L137.29799 101.459L120.33799 81.193L120.338 81.193zM135.537 77.725L139.174 77.725L139.342 77.717995L139.416 77.70999L139.492 77.69699L139.57 77.67799L139.654 77.65199L139.746 77.61699L139.851 77.57099L139.97 77.509995L140.101 77.43299L140.244 77.33799L140.40201 77.22199L140.572 77.08299L140.752 76.92099L140.941 76.73499L141.136 76.523994L141.335 76.29099L141.54001 76.03099L141.751 75.74199L141.96 75.43299L142.16501 75.10199L142.37401 74.74199L142.57901 74.36299L142.77602 73.96399L142.97102 73.54399L143.15503 73.10599L143.33502 72.64799L143.50902 72.16899L143.67102 71.675995L143.82301 71.17L143.96602 70.648994L144.09702 70.11299L144.20801 69.60999L144.24301 69.40699L144.296 69.10199L144.345 68.80099L144.388 68.50299L144.431 68.19499L144.47 67.88899L144.505 67.58399L144.53801 67.27599L144.565 66.97299L144.59 66.66499L144.611 66.354L144.631 66.051994L144.645 65.75299L144.653 65.454994L144.659 65.15199L144.663 64.86099L144.659 64.44699L144.64499 64.038994L144.62498 63.633995L144.59598 63.227997L144.56097 62.822998L144.51797 62.421997L144.46698 62.024998L144.40797 61.630997L144.34198 61.240997L144.26997 60.856L144.18997 60.469997L144.10397 60.095997L144.00798 59.722996L143.90997 59.356995L143.80298 58.996994L143.68997 58.640995L143.57297 58.293995L143.44997 57.952995L143.31897 57.617996L143.18597 57.294994L143.04697 56.977993L142.90097 56.665993L142.75497 56.363995L142.60498 56.075996L142.45097 55.795998L142.29297 55.523L142.13097 55.260998L141.96896 55.01L141.80296 54.768997L141.63696 54.538998L141.46896 54.317997L141.28496 54.090996L141.15396 53.936996L141.02097 53.785995L140.89197 53.644997L140.76497 53.511997L140.63597 53.384L140.50497 53.259L140.37997 53.142998L140.25697 53.038L140.13597 52.935997L140.01097 52.837997L139.89597 52.750996L139.78096 52.668995L139.66396 52.588993L139.55896 52.520992L139.45396 52.457993L139.34497 52.39699L139.23598 52.338993L139.13998 52.291992L139.04399 52.248993L138.94199 52.206993L138.85399 52.172993L138.76 52.13999L138.668 52.11199L138.578 52.08699L138.49 52.06599L138.404 52.04699L138.31201 52.02999L138.22801 52.01699L138.13802 52.006992L138.04602 51.998993L137.95602 51.99499L137.80403 51.992992L135.05403 51.992992L135.40903 52.08599L136.37402 52.429993L137.35402 52.880993L138.35002 53.45999L139.32503 54.173992L140.25302 55.020992L141.10503 55.991993L141.85703 57.074993L142.49402 58.248993L143.00401 59.488995L143.391 60.778996L143.65701 62.106995L143.81102 63.461994L143.86002 64.839L143.81702 66.212L143.68802 67.526L143.46101 68.812004L143.12701 70.073006L142.67601 71.298004L142.102 72.47301L141.399 73.58401L140.575 74.60601L139.645 75.51001L138.645 76.27501L137.606 76.89501L136.559 77.37301L135.537 77.725006z" stroke="none" fill="#33A457" fill-rule="nonzero" />
    <path d="M16.52 131.471L14.6 131.471L16.141 125.786995L16.695002 123.74L18.615002 123.74L18.061 125.786995L17.831001 126.63699L17.377 128.31099L16.52 131.471zM19.835001 131.471L17.915 131.471L19.456001 125.786995L20.010002 123.74L22.429003 123.74L29.671003 123.754C 30.345003 123.754 30.866003 123.943 31.233004 124.318C 31.600004 124.695 31.712004 125.148 31.568003 125.679L31.568003 125.679L30.521002 129.544L29.999002 131.47L28.079002 131.47L28.955002 128.282L29.358002 126.796C 29.37 126.528 29.254002 126.294 29.011002 126.090996C 28.767002 125.88799 28.419003 125.785995 27.967001 125.785995L27.967001 125.785995L21.35 125.785995L20.692001 128.30899L20.404001 129.37099L19.835001 131.471zM32.909 125.786995L32.941 125.66599C 33.085003 125.134995 33.442 124.68199 34.014 124.30699C 34.56636 123.935616 35.21741 123.73845 35.883 123.74099L35.883 123.74099L43.125 123.75499L45.548 123.74099L44.993 125.78799L32.909 125.78799L32.909 125.78699zM33.289 131.471L31.369001 131.471L31.891 129.545L32.672 126.661995L44.756 126.661995L44.259 128.496L34.095 128.496L33.857002 129.373L33.289 131.47101zM45.344 129.545L46.395 125.666C 46.539 125.135 46.896 124.682 47.468002 124.307C 48.019997 123.93565 48.670723 123.73849 49.336002 123.741L49.336002 123.741L56.577003 123.755C 57.251003 123.755 57.772003 123.944 58.139004 124.319C 58.506004 124.696 58.618004 125.149 58.474003 125.68L58.474003 125.68L57.426003 129.545C 57.282 130.076 56.925003 130.52899 56.353004 130.90599C 55.781006 131.28299 55.159004 131.46999 54.485004 131.46999L54.485004 131.46999L47.239006 131.46999C 46.565006 131.46999 46.044006 131.28198 45.677006 130.90599C 45.312004 130.52899 45.200005 130.07599 45.344006 129.545zM55.862 128.283L56.265 126.797005C 56.277 126.52901 56.162 126.295006 55.918 126.092C 55.674 125.889 55.326 125.787 54.875 125.787L54.875 125.787L49.908 125.787C 49.455 125.787 49.048 125.889 48.686 126.092C 48.324 126.295006 48.096 126.539 48.001 126.82201L48.001 126.82201L47.598 128.31001C 47.521 128.59302 47.607 128.84102 47.857 129.05202C 48.107 129.26501 48.461 129.37202 48.921997 129.37202L48.921997 129.37202L53.964996 129.37202C 54.374996 129.37202 54.773994 129.26303 55.160995 129.04602C 55.549995 128.83002 55.782997 128.57602 55.861996 128.28302zM66.634 128.496L61.002003 128.496L60.764004 129.373L60.196003 131.47101L58.276005 131.47101L58.798004 129.54501L59.579002 126.66201L69.665 126.66201L69.903 125.78701L59.816 125.78701L60.370003 123.74001L62.789 123.74001L70.031 123.75401C 70.724 123.74601 71.256 123.91201 71.624 124.252014C 71.993004 124.59402 72.084 125.10601 71.9 125.78702L71.9 125.78702L71.662 126.66202C 71.479004 127.33602 71.148 127.81002 70.66901 128.08401C 70.19001 128.35901 69.54401 128.49602 68.73301 128.49602L68.73301 128.49602L70.35901 131.47102L68.25901 131.47102L66.63401 128.49602zM74.937004 126.717L74.41801 128.629L73.64801 131.471L71.72801 131.471L73.01701 126.716995L74.93701 126.716995zM81.892006 131.47101L83.812004 131.47101L84.33401 129.54501L85.907005 123.74001L83.16801 123.74001L78.47001 129.08002L76.461006 123.74002L73.824005 123.74002L73.270004 125.78702L75.215004 125.78702L77.156006 131.47102L78.436005 131.47102L83.43301 125.787025L81.892006 131.47102zM93.170006 126.742004L92.75101 125.787L90.409004 125.787L92.346 123.740005L94.292 123.740005L97.267 131.47L95.347 131.47L93.977 128.495L90.137 128.495L87.103004 131.47L85.18301 131.47L89.588005 126.741L93.170006 126.741L93.170006 126.742zM105.59801 131.47101L103.67801 131.47101L105.21901 125.78701L100.17601 125.78701L100.73101 123.74001L103.14901 123.74001L110.39101 123.75401L112.813 123.74001L112.26 125.78701L107.139 125.78701L105.598 131.47101zM114.00801 131.47101L112.08801 131.47101L113.62901 125.78701L114.18401 123.74001L116.10401 123.74001L115.54901 125.78701L115.31901 126.63701L114.866005 128.311L114.008 131.47101zM126.36501 129.373L128.05602 129.373L127.486015 131.47101L117.822 131.47101C 117.147995 131.47101 116.629 131.283 116.26 130.90701C 115.893005 130.53001 115.781006 130.07701 115.926 129.54602L115.926 129.54602L116.977005 125.66702C 117.122 125.136024 117.479004 124.68302 118.049 124.30802C 118.60144 123.93682 119.25244 123.73968 119.91801 123.74202L119.91801 123.74202L127.158005 123.75602L129.582 123.74202L129.02701 125.78902L120.490005 125.78902C 120.037 125.78902 119.629005 125.891014 119.267006 126.09402C 118.90501 126.29702 118.67701 126.541016 118.58301 126.82402L118.58301 126.82402L118.17901 128.31203C 118.10301 128.59503 118.18901 128.84303 118.43901 129.05403C 118.68901 129.26703 119.044014 129.37404 119.50501 129.37404L119.50501 129.37404L126.36501 129.37404L126.36501 129.37303zM136.84601 126.742004L136.42601 125.787L134.08401 125.787L136.02202 123.740005L137.96802 123.740005L140.94302 131.47L139.02103 131.47L137.65202 128.495L133.813 128.495L130.78 131.47L128.86 131.47L133.264 126.741L136.84601 126.741L136.84601 126.742z" stroke="none" fill="#000000" fill-rule="nonzero" />
    <path d="M93.575 122.277L94.436 122.268L96.395996 120.389L94.65199 120.432L93.57499 122.277L93.575 122.277z" stroke="none" fill="#000000" fill-rule="nonzero" />
    <path d="M14.226 133.6L141.26201 133.6L141.26201 132.67201L14.226 132.67201L14.226 133.6z" stroke="none" fill="#CC2229" fill-rule="nonzero" />
</g>
</svg>